<svg xmlns="http://www.w3.org/2000/svg" viewBox="0 0 64 64" role="img" aria-labelledby="title description">
  <title id="title">Castboard</title>
  <desc id="description">A modular dashboard with a broadcast signal in its open corner.</desc>
  <path d="M8 27V16a6 6 0 0 1 6-6h36a6 6 0 0 1 6 6v28a6 6 0 0 1-6 6H35" fill="none" stroke="#8ee6c2" stroke-width="5" stroke-linecap="round"/>
  <rect x="17" y="19" width="17" height="16" rx="3" fill="#8ee6c2"/>
  <rect x="39" y="19" width="8" height="7" rx="2" fill="#59d8e6"/>
  <rect x="39" y="31" width="8" height="10" rx="2" fill="#59d8e6"/>
  <g fill="none" stroke="#8ee6c2" stroke-width="5" stroke-linecap="round">
    <path d="M8 35a21 21 0 0 1 21 21"/>
    <path d="M8 45a11 11 0 0 1 11 11"/>
  </g>
  <circle cx="8" cy="56" r="3" fill="#8ee6c2"/>
</svg>
